# xmcd
#
# Track frame offsets: 
#        150
#        15610
#        26285
#        39975
#        61847
#        76362
#        88769
#        102444
#        118474
#
# Disc length: 1736 seconds
#
# Revision: 0
# Processed by: cddbd v1.5.2PL0 Copyright (c) Steve Scherf et al.
# Submitted via: ExactAudioCopy v1.0b4
#
DISCID=6906c609
DTITLE=Flávio Guimarães and Netto Rockfeller - Nice And Easy
DYEAR=2016
DGENRE=Blues
TTITLE0=Nice And Easy
TTITLE1=Checkmate
TTITLE2=Love Jumps
TTITLE3=Bad Road
TTITLE4=Down The Hill, No Brakes
TTITLE5=Time Is Getting Faster
TTITLE6=Sloppy Drunk
TTITLE7=Big Walter
TTITLE8=Jungle Heat
EXTD=
EXTT0=
EXTT1=
EXTT2=
EXTT3=
EXTT4=
EXTT5=
EXTT6=
EXTT7=
EXTT8=
PLAYORDER=
